<svg xmlns="http://www.w3.org/2000/svg" xmlns:xlink="http://www.w3.org/1999/xlink" width="73.591" height="74.108" viewBox="0 0 73.591 74.108"><defs><radialGradient id="a" cx="0.982" cy="0.145" r="1.338" gradientTransform="matrix(1, 0.002, -0.002, 1, 0, -0.002)" gradientUnits="objectBoundingBox"><stop offset="0" stop-color="#289fd7"/><stop offset="0.506" stop-color="#289fd7"/><stop offset="1" stop-color="#1079b5"/></radialGradient></defs><g transform="translate(1373 749)"><path d="M13.8,74.108A13.814,13.814,0,0,1,0,60.312V13.8A13.809,13.809,0,0,1,13.8,0h59.8V60.276A13.865,13.865,0,0,1,59.758,74.108ZM19.87,63.28H52.8a10.026,10.026,0,0,0,9.96-10.024q0-.032,0-.065V10.828H19.931a9.11,9.11,0,0,0-9.042,8.718V54.623A9.049,9.049,0,0,0,19.87,63.28Z" transform="translate(-1373 -749)" fill="url(#a)"/><ellipse cx="9.735" cy="9.843" rx="9.735" ry="9.843" transform="matrix(0.999, -0.035, 0.035, 0.999, -1346.558, -731.285)" fill="#289fd7"/></g></svg>